<svg width="501" height="221" viewBox="0 0 501 221" fill="none" xmlns="http://www.w3.org/2000/svg">
<path d="M89.43 147.32C88.4767 147.32 87.8533 146.917 87.56 146.11C87.2667 145.303 87.12 143.8 87.12 141.6V136.87C87.12 130.93 87.6333 114.833 88.66 88.58C88.8067 82.64 88.99 76.81 89.21 71.09C89.43 65.37 89.5767 60.6767 89.65 57.01C86.4967 64.05 81.6567 73.84 75.13 86.38C68.6767 98.92 64.7533 106.51 63.36 109.15C60.1333 115.237 56.87 121.507 53.57 127.96C52.8367 129.5 51.92 130.27 50.82 130.27C49.7933 130.27 49.06 129.757 48.62 128.73L44.66 110.47C37.9867 80.6233 33.88 61.9233 32.34 54.37C30.6533 62.8767 28.8933 71.0167 27.06 78.79C25.3 86.49 23.0267 96.06 20.24 107.5C19.2133 111.827 17.9667 117.07 16.5 123.23C15.0333 129.39 13.3467 136.65 11.44 145.01C10.6333 146.477 9.60667 147.21 8.36 147.21C7.26 147.21 6.63667 146.477 6.49 145.01C7.73667 138.117 9.49667 129.61 11.77 119.49C14.0433 109.37 16.3167 99.5433 18.59 90.01C20.8633 80.4033 22.3667 73.9867 23.1 70.76L29.81 42.27C30.03 41.5367 30.4333 40.9133 31.02 40.4C31.68 39.8867 32.3033 39.63 32.89 39.63C33.8433 39.63 34.5033 40.2533 34.87 41.5C36.1167 46.9267 39.1233 60.6033 43.89 82.53C46.75 96.83 49.3533 108.857 51.7 118.61C55.1467 112.743 59.4 104.897 64.46 95.07C69.52 85.2433 76.34 71.86 84.92 54.92C87.12 50.3733 89.2467 46.12 91.3 42.16C92.18 40.4 93.2433 39.52 94.49 39.52C95.6633 39.52 96.25 40.07 96.25 41.17L96.03 44.14C93.9767 79.0467 92.8033 111.643 92.51 141.93C92.73 142.223 92.84 142.627 92.84 143.14C92.84 144.093 92.4733 145.047 91.74 146C91.08 146.88 90.31 147.32 89.43 147.32ZM122.696 147.1C120.35 147.1 118.516 146.733 117.196 146C115.876 145.193 114.813 143.983 114.006 142.37C112.466 139.51 111.696 136.063 111.696 132.03C111.696 124.99 112.76 118.317 114.886 112.01C117.013 105.63 119.91 100.277 123.576 95.95C127.096 91.8433 130.946 89.79 135.126 89.79C137.326 89.79 139.05 90.7067 140.296 92.54C141.616 94.3 142.276 96.4633 142.276 99.03C142.276 103.503 141.103 107.39 138.756 110.69C136.483 113.99 133.403 116.74 129.516 118.94C126.143 120.92 122.036 122.9 117.196 124.88L116.976 132.8C116.976 138.96 118.846 142.04 122.586 142.04C124.126 142.04 125.593 141.747 126.986 141.16C128.453 140.573 130.03 139.767 131.716 138.74C133.696 137.567 135.09 136.98 135.896 136.98C137.143 136.98 137.766 137.64 137.766 138.96C137.766 139.913 136.85 141.05 135.016 142.37C133.256 143.69 131.166 144.827 128.746 145.78C126.326 146.66 124.31 147.1 122.696 147.1ZM118.076 119.6C122.99 117.62 126.73 115.86 129.296 114.32C131.863 112.78 133.806 110.837 135.126 108.49C136.52 106.143 137.216 103.063 137.216 99.25C137.216 96.39 136.006 94.96 133.586 94.96C131.46 94.96 128.966 96.9033 126.106 100.79C123.1 104.677 120.68 109.773 118.846 116.08C118.333 117.84 118.076 119.013 118.076 119.6ZM133.476 82.86C132.596 82.86 131.863 82.64 131.276 82.2C130.69 81.76 130.396 81.1367 130.396 80.33C130.396 79.89 130.8 79.0833 131.606 77.91C133.22 75.49 136.116 69.8067 140.296 60.86C140.59 60.2 141.03 59.76 141.616 59.54C142.203 59.32 143.083 59.21 144.256 59.21C145.65 59.21 146.346 59.8333 146.346 61.08C146.346 61.4467 145.796 62.9133 144.696 65.48C143.596 68.0467 142.276 70.76 140.736 73.62C139.27 76.4067 137.913 78.6067 136.666 80.22C135.566 81.98 134.503 82.86 133.476 82.86ZM150.77 147.54C150.037 147.54 149.414 147.393 148.9 147.1C148.387 146.807 148.13 146.44 148.13 146C148.79 143.947 149.304 141.82 149.67 139.62C150.184 136.907 150.77 134.633 151.43 132.8C154.29 121.507 156.784 108.637 158.91 94.19L159.24 92.32C159.24 91.8067 159.754 90.9633 160.78 89.79C161.44 89.4967 161.99 89.35 162.43 89.35C163.384 89.35 164.044 89.9733 164.41 91.22V92.1C164.337 96.94 163.53 102.623 161.99 109.15L159.24 120.7L161.88 114.98C165.694 106.033 169.36 99.58 172.88 95.62C176.18 91.88 179.847 90.01 183.88 90.01C186.007 90.01 187.767 90.89 189.16 92.65C190.627 94.41 191.36 96.5 191.36 98.92V99.8C191.287 100.02 191.25 100.313 191.25 100.68C195.21 95.84 199.354 92.54 203.68 90.78C205.074 90.1933 206.43 89.9 207.75 89.9C209.144 89.9 210.427 90.56 211.6 91.88C212.774 93.2 213.36 94.8867 213.36 96.94C213.36 100.973 212.554 105.777 210.94 111.35C209.914 114.723 209.107 117.253 208.52 118.94C205 129.353 203.057 136.393 202.69 140.06C202.617 140.72 202.507 141.563 202.36 142.59C202.214 143.543 202.104 144.13 202.03 144.35C201.444 146.11 200.454 146.99 199.06 146.99C197.374 146.99 196.53 145.193 196.53 141.6C196.53 139.4 196.934 136.98 197.74 134.34C198.4 132.36 199.097 130.123 199.83 127.63C200.05 126.75 200.747 124.623 201.92 121.25C203.607 116.483 204.927 112.45 205.88 109.15C206.834 105.85 207.494 102.22 207.86 98.26C207.86 96.8667 207.677 96.0233 207.31 95.73C207.017 95.3633 206.357 95.18 205.33 95.18C204.23 95.18 202.69 95.84 200.71 97.16C198.804 98.48 196.897 100.24 194.99 102.44C190.59 107.427 187.217 113.88 184.87 121.8C184.137 124.513 183.514 126.457 183 127.63C180.58 134.963 179.077 139.73 178.49 141.93C177.904 144.277 177.427 145.67 177.06 146.11C176.62 146.697 175.96 146.99 175.08 146.99C173.394 146.99 172.477 146.073 172.33 144.24C173.064 139.107 174.09 134.56 175.41 130.6C176.73 126.64 178.38 122.203 180.36 117.29C181.607 114.063 182.67 110.837 183.55 107.61C184.504 104.31 184.98 101.523 184.98 99.25C184.98 96.7567 184.21 95.51 182.67 95.51C180.104 95.51 177.17 97.93 173.87 102.77C170.57 107.537 167.527 112.853 164.74 118.72C161.954 124.513 160.157 128.62 159.35 131.04C158.837 132.433 158.434 133.57 158.14 134.45C157.847 135.257 157.627 135.917 157.48 136.43C155.134 143.837 152.897 147.54 150.77 147.54ZM233.556 146.99C229.742 146.99 226.882 145.487 224.976 142.48C223.142 139.473 222.226 135.88 222.226 131.7C222.226 125.027 223.326 118.573 225.526 112.34C227.799 106.033 230.879 100.827 234.766 96.72C238.506 92.54 242.722 90.45 247.416 90.45C254.162 90.45 257.536 95.5833 257.536 105.85C257.536 110.983 256.692 116.227 255.006 121.58C253.319 126.933 251.119 131.7 248.406 135.88C245.766 140.06 243.016 143.067 240.156 144.9C237.956 146.293 235.756 146.99 233.556 146.99ZM234.436 142.04C236.709 142.04 239.239 140.06 242.026 136.1C244.886 132.14 247.269 127.227 249.176 121.36C251.156 115.493 252.146 110.507 252.146 106.4C252.146 102.147 251.889 99.5067 251.376 98.48C250.936 97.38 250.386 96.61 249.726 96.17C249.066 95.73 248.039 95.51 246.646 95.51C245.106 95.51 243.492 96.0967 241.806 97.27C238.432 99.3967 235.499 103.063 233.006 108.27C229.119 116.043 227.176 123.597 227.176 130.93C227.176 135.917 228.606 139.363 231.466 141.27C232.492 141.783 233.482 142.04 234.436 142.04ZM273.8 146.88C271.16 146.88 269.144 146.183 267.75 144.79C266.43 143.397 265.77 141.563 265.77 139.29C265.77 137.31 265.88 135.513 266.1 133.9C266.32 132.213 266.724 129.61 267.31 126.09C268.484 119.27 269.987 111.497 271.82 102.77L274.68 88.91C280.987 58.77 284.36 42.9667 284.8 41.5C285.167 40.3267 285.974 39.74 287.22 39.74C288.76 39.74 289.53 40.5833 289.53 42.27L289.09 45.13C288.724 47.4767 288.32 49.6767 287.88 51.73C287.44 53.71 286.634 57.56 285.46 63.28C283.48 72.52 280.95 84.4 277.87 98.92C274.864 113.44 272.957 123.12 272.15 127.96C271.197 133.24 270.72 136.54 270.72 137.86C270.72 138.96 271.05 139.95 271.71 140.83C272.37 141.71 273.177 142.15 274.13 142.15C275.157 142.15 276.11 141.967 276.99 141.6C277.944 141.16 278.567 140.867 278.86 140.72L280.73 139.73C281.317 139.437 281.684 139.29 281.83 139.29C283.444 139.29 284.25 140.097 284.25 141.71C284.25 143.323 283.224 144.607 281.17 145.56C279.117 146.44 276.66 146.88 273.8 146.88ZM296.652 147.1C294.159 147.1 292.912 145.083 292.912 141.05C292.912 140.023 293.095 139.107 293.462 138.3C293.829 137.053 294.159 135.623 294.452 134.01L296.102 126.64L298.302 116.96C299.035 113.367 299.915 109.333 300.942 104.86C301.089 104.42 301.235 103.687 301.382 102.66C302.115 99.5067 302.482 97.6733 302.482 97.16V96.06C302.482 95.4733 302.225 94.2633 301.712 92.43C301.712 91.55 302.005 90.7433 302.592 90.01C303.252 89.2767 304.022 88.91 304.902 88.91C305.709 88.91 306.405 89.46 306.992 90.56C307.579 91.66 307.872 92.87 307.872 94.19C307.872 95.6567 306.185 103.577 302.812 117.95C299.439 132.323 297.752 139.95 297.752 140.83C297.752 141.637 298.119 142.04 298.852 142.04C299.219 142.04 299.879 141.563 300.832 140.61C301.712 139.73 302.445 139.29 303.032 139.29C304.205 139.29 304.792 140.023 304.792 141.49C304.792 142.37 304.279 143.25 303.252 144.13C302.225 145.01 301.052 145.707 299.732 146.22C298.412 146.807 297.385 147.1 296.652 147.1ZM307.762 80.66C306.589 80.66 305.709 80.5133 305.122 80.22H304.682C302.555 80.22 301.492 78.9733 301.492 76.48C301.492 75.2333 302.005 74.0967 303.032 73.07C304.132 72.0433 305.305 71.53 306.552 71.53C307.799 71.53 308.972 71.97 310.072 72.85C311.319 74.0967 311.942 75.3067 311.942 76.48C311.942 77.58 311.502 78.57 310.622 79.45C309.815 80.2567 308.862 80.66 307.762 80.66ZM347.237 146.66C346.064 146.66 345.221 146.44 344.707 146C344.194 145.56 344.011 144.79 344.157 143.69L349.547 111.57C350.207 107.61 350.537 104.567 350.537 102.44C350.537 98.92 349.547 97.16 347.567 97.16C345.147 97.16 341.811 101.377 337.557 109.81C333.377 118.17 329.051 127.63 324.577 138.19L323.037 141.71C321.717 144.57 320.397 146 319.077 146C318.344 146 317.867 145.853 317.647 145.56C317.501 145.193 317.427 144.46 317.427 143.36C317.427 142.26 318.857 133.79 321.717 117.95C324.651 102.11 326.337 93.7867 326.777 92.98C327.217 92.1 327.584 91.55 327.877 91.33C328.244 91.11 328.904 91 329.857 91C330.737 91 331.434 91.33 331.947 91.99C332.534 92.65 332.827 93.31 332.827 93.97C332.827 94.41 332.461 95.84 331.727 98.26C329.527 105.74 327.804 113 326.557 120.04L325.457 126.53C326.704 123.89 327.621 121.837 328.207 120.37C330.261 115.603 332.131 111.423 333.817 107.83C335.577 104.237 337.521 100.9 339.647 97.82C342.874 93.2 345.881 90.89 348.667 90.89C353.581 90.89 356.037 94.85 356.037 102.77C356.037 104.457 355.817 106.62 355.377 109.26C354.937 111.9 354.461 114.613 353.947 117.4C352.921 122.753 352.261 126.42 351.967 128.4L351.197 133.46C350.537 138.007 349.951 141.343 349.437 143.47C348.924 145.597 348.191 146.66 347.237 146.66ZM369.489 191.1C365.896 191.1 362.926 189.89 360.579 187.47C358.232 185.05 357.059 181.897 357.059 178.01C357.059 174.783 357.866 171.85 359.479 169.21C361.019 166.57 362.852 164.26 364.979 162.28C367.179 160.373 370.039 158.137 373.559 155.57C373.999 155.277 374.402 154.983 374.769 154.69C375.136 154.47 375.429 154.287 375.649 154.14C378.802 151.867 381.992 149.41 385.219 146.77C385.732 144.423 386.466 141.087 387.419 136.76C388.372 132.433 389.142 129.17 389.729 126.97C387.749 132.69 385.329 137.42 382.469 141.16C379.682 144.827 376.859 146.66 373.999 146.66C371.286 146.66 369.159 145.707 367.619 143.8C366.152 141.82 365.419 139.107 365.419 135.66C365.419 129.207 366.592 122.497 368.939 115.53C371.359 108.563 374.622 102.587 378.729 97.6C382.762 92.54 387.309 90.01 392.369 90.01C394.716 90.01 396.952 90.5967 399.079 91.77C399.519 91.55 399.996 91.44 400.509 91.44C401.682 91.44 402.269 92.0267 402.269 93.2C402.269 94.2267 401.976 95.6933 401.389 97.6C400.802 99.5067 400.436 100.68 400.289 101.12C399.336 104.567 397.759 111.13 395.559 120.81L390.719 143.14C391.452 142.627 393.029 141.343 395.449 139.29C395.742 139.07 396.292 138.63 397.099 137.97C397.906 137.237 398.566 136.723 399.079 136.43C399.666 136.063 400.142 135.88 400.509 135.88C401.829 135.88 402.489 136.503 402.489 137.75C402.489 138.63 402.196 139.363 401.609 139.95C397.796 142.883 393.946 145.743 390.059 148.53L386.869 164.7C384.742 175.627 381.992 182.96 378.619 186.7C375.979 189.633 372.936 191.1 369.489 191.1ZM374.439 141.6C376.052 141.6 377.849 140.537 379.829 138.41C381.809 136.283 383.716 133.423 385.549 129.83C387.456 126.163 389.032 122.24 390.279 118.06L394.569 103.1L396.549 95.84C395.522 94.8867 394.092 94.41 392.259 94.41C389.106 94.41 385.806 96.5 382.359 100.68C378.986 104.86 376.126 110.14 373.779 116.52C371.506 122.827 370.369 128.583 370.369 133.79C370.369 138.997 371.726 141.6 374.439 141.6ZM369.269 185.6C371.836 185.6 373.962 184.573 375.649 182.52C377.336 180.467 378.656 177.753 379.609 174.38C380.636 171.08 381.662 166.753 382.689 161.4L384.339 152.71C381.699 154.91 379.059 157 376.419 158.98C372.386 161.987 369.049 164.993 366.409 168C363.769 171.08 362.449 174.6 362.449 178.56C362.449 180.907 363.036 182.667 364.209 183.84C365.456 185.013 367.142 185.6 369.269 185.6ZM436.026 148.64C433.826 148.64 432.726 145.707 432.726 139.84C432.726 136.76 432.983 133.68 433.496 130.6C434.01 127.52 434.816 123.523 435.916 118.61L436.796 114.54C435.55 116.96 434.083 120.04 432.396 123.78C429.39 129.94 426.346 135.33 423.266 139.95C420.26 144.57 417.253 146.88 414.246 146.88C410.286 146.88 408.306 142.957 408.306 135.11C408.306 125.357 409.883 113.953 413.036 100.9L414.796 94.19C415.456 91.77 416.593 90.56 418.206 90.56C419.086 90.56 419.71 91.1833 420.076 92.43C419.93 93.75 419.636 95.3267 419.196 97.16C418.756 98.9933 418.463 100.313 418.316 101.12C416.923 106.473 415.786 111.827 414.906 117.18C414.026 122.46 413.513 128.913 413.366 136.54C413.366 139.473 413.843 140.94 414.796 140.94C416.19 140.94 418.06 139.327 420.406 136.1C422.753 132.8 425.65 127.813 429.096 121.14C432.47 113.88 435.696 107.353 438.776 101.56C441.856 95.6933 444.276 92.76 446.036 92.76C447.283 92.76 447.906 93.4567 447.906 94.85C447.906 95.8767 446.99 98.7733 445.156 103.54C443.763 107.133 442.846 109.737 442.406 111.35C439.84 120.15 438.226 129.757 437.566 140.17C437.566 141.123 437.64 141.857 437.786 142.37C438.006 142.81 438.336 143.287 438.776 143.8C439.29 144.313 439.546 144.937 439.546 145.67C439.546 146.403 439.143 147.063 438.336 147.65C437.53 148.31 436.76 148.64 436.026 148.64ZM489.685 146.22C487.998 146.22 486.421 145.34 484.955 143.58C483.561 141.747 482.865 139.803 482.865 137.75C482.865 133.203 484.075 125.503 486.495 114.65C484.661 118.61 482.278 122.68 479.345 126.86C476.485 130.967 473.661 134.597 470.875 137.75C468.088 140.903 466.035 142.957 464.715 143.91C462.881 145.303 460.865 146 458.665 146C454.485 146 452.395 143.36 452.395 138.08C452.395 132.947 454.338 126.567 458.225 118.94C462.111 111.24 466.731 104.567 472.085 98.92C477.438 93.3467 481.765 90.56 485.065 90.56C488.438 90.56 490.345 92.0267 490.785 94.96C491.005 95.84 491.115 96.7933 491.115 97.82C491.481 97.6 491.885 97.49 492.325 97.49C494.011 97.49 494.855 98.2967 494.855 99.91V100.35L493.535 105.19C492.508 108.857 491.445 114.283 490.345 121.47C489.245 128.657 488.695 134.633 488.695 139.4L489.795 140.06C491.555 141.16 492.435 142.26 492.435 143.36C492.435 144.093 492.178 144.753 491.665 145.34C491.151 145.927 490.491 146.22 489.685 146.22ZM459.545 140.28C460.351 140.28 461.011 140.023 461.525 139.51C469.005 133.13 475.641 124.293 481.435 113C483.928 108.307 485.468 105.227 486.055 103.76C486.715 102.293 487.045 100.863 487.045 99.47C487.045 98.7367 486.861 98.0767 486.495 97.49C486.128 96.9033 485.651 96.61 485.065 96.61C484.331 96.61 483.378 96.94 482.205 97.6C479.271 99.14 475.788 102.403 471.755 107.39C467.795 112.377 464.531 117.657 461.965 123.23C459.251 128.877 457.895 133.9 457.895 138.3C457.895 139.62 458.445 140.28 459.545 140.28Z" fill="#4CD63A"/>
<path d="M359.199 173.61C359.855 172.395 359.402 170.878 358.187 170.222C356.973 169.565 355.456 170.018 354.8 171.233L359.199 173.61ZM143.279 168.5C141.898 168.515 140.791 169.646 140.806 171.027L141.047 193.526C141.062 194.906 142.193 196.013 143.574 195.999C144.954 195.984 146.061 194.853 146.047 193.472L145.832 173.473L165.831 173.259C167.212 173.244 168.319 172.112 168.304 170.732C168.289 169.351 167.158 168.244 165.777 168.259L143.279 168.5ZM354.8 171.233C335.051 207.791 294.42 218.631 252.3 214.482C210.187 210.332 167.556 191.238 145.054 169.213L141.557 172.787C165.021 195.753 208.791 215.219 251.81 219.457C294.822 223.695 338.054 212.751 359.199 173.61L354.8 171.233Z" fill="#7D62DE"/>
</svg>
